# xmcd
#
# Track frame offsets: 
#        150
#        14267
#        28385
#        42275
#        52172
#        65614
#        73659
#        87463
#        99340
#        109357
#        132854
#        142872
#
# Disc length: 2029 seconds
#
# Revision: 0
# Processed by: cddbd v1.5.2PL0 Copyright (c) Steve Scherf et al.
# Submitted via: ExactAudioCopy v1.0b1
#
DISCID=ae07eb0c
DTITLE=Johnny Cash - Orange Blossom Special
DYEAR=1965
DGENRE=Country
TTITLE0=Orange Blossom Special
TTITLE1=The Long Black Veil
TTITLE2=It Ain't Me Babe
TTITLE3=The Wall
TTITLE4=Don't Think Twice, It's All Right
TTITLE5=You Wild Colorado
TTITLE6=Mama, You've Been On My Mind
TTITLE7=When It's Springtime In Alaska (It's Forty Below)
TTITLE8=All Of God's Children Ain't Free
TTITLE9=Danny Boy
TTITLE10=Wildwood Flower
TTITLE11=Amen
EXTD=
EXTT0=
EXTT1=
EXTT2=
EXTT3=
EXTT4=
EXTT5=
EXTT6=
EXTT7=
EXTT8=
EXTT9=
EXTT10=
EXTT11=
PLAYORDER=
